<svg xmlns="http://www.w3.org/2000/svg" viewBox="0 0 89.3 9.8"><path d="M88.7 7.6c-.3.5-1.2 1.8-4 1.8-1.5 0-4.3-.7-4.3-4.5 0-1.5.4-2.6 1.1-3.4.7-.8 1.8-1.1 3.2-1.1 3.1 0 3.8 2.2 3.9 2.9h-1.8c-.1-.5-.6-1.3-2.1-1.3-.9 0-1.5.2-1.9.7-.4.5-.6 1.2-.6 2.1v.4c0 2.3 1.7 2.8 2.6 2.8 1 0 1.7-.2 2.1-.8V6h-2.4V4.4h4.2v3.2c.1 0 0 0 0 0zM73.3 4.5h2.5c.4 0 .7-.1.9-.3.2-.2.3-.5.3-.9s-.1-.7-.3-.9c-.2-.2-.5-.3-.9-.3h-2.5v2.4zM75.7 6h-2.4v3.3h-1.8V.5H76c.9 0 1.6.2 2.1.7.5.5.7 1.2.7 2 0 1.2-.5 2-1.5 2.5L79 9.3h-1.9L75.7 6zM62.5.5v8.8h6.7V7.7h-4.9V5.6h4.3V4h-4.3V2.1h4.8V.5zM54.7 7.7h2.7c.3 0 .6-.1.8-.3.2-.2.3-.5.3-.8 0-.3-.1-.6-.3-.8-.2-.2-.5-.3-.9-.3h-2.6v2.2zm0-3.7h2.5c.3 0 .6-.1.8-.3.2-.2.3-.4.3-.7 0-.3-.1-.6-.3-.7-.2-.2-.4-.3-.7-.3h-2.6v2zM52.9.5h4.8c.4 0 .8.1 1.2.3.4.2.6.4.8.8.2.3.3.7.3 1.1 0 .5-.1.9-.4 1.3s-.6.6-1 .7v.1c.5.1.9.3 1.2.7.3.4.4.8.4 1.4 0 .8-.2 1.4-.7 1.8s-1.1.6-1.9.6h-4.8V.5zM44 .5v8.8h6.7V7.7h-4.9V5.6h4.3V4h-4.3V2.1h4.8V.5zM39.6 2.8c-.4-.5-.9-.7-1.6-.7h-1.7v5.6H38c.7 0 1.3-.2 1.6-.7.4-.5.6-1.1.6-1.9v-.4c-.1-.8-.3-1.5-.6-1.9M34.4.5h3.5c1.3 0 2.3.4 3 1.1.7.7 1 1.8 1 3.3s-.3 2.6-1 3.3c-.7.7-1.7 1.1-3 1.1h-3.5V.5zM26.8 4.5c-.1-.1-.2-.3-.3-.5-.1-.2-.2-.3-.2-.4h-.1V9.2h-1.7V.5h1.7l3.2 4.8c.1.1.2.2.3.4.3.2.3.4.4.4h.1v-.3V.5h1.7v8.8h-1.7l-3.4-4.8zM20.2.5H22v8.8h-1.8zM11.8.5v8.8h6.3V7.7h-4.5V.5zM7.9 7.5h1.7v1.8H7.9zM6.3.5v6.3c0 .9-.2 1.5-.7 2-.5.4-1.2.6-2.2.6-.9 0-1.6-.2-2.1-.7-.5-.4-.7-1.1-.7-2v-.4h1.8v.5c0 .4.1.6.3.8.2.2.5.3.8.3.4 0 .6-.1.8-.3.2-.2.3-.5.3-.8V.5h1.7z"/></svg>