<?xml version="1.0" encoding="UTF-8" standalone="no"?>
<!-- Created with Inkscape (http://www.inkscape.org/) -->

<svg
   version="1.1"
   id="svg2"
   xml:space="preserve"
   width="982.55066"
   height="648.47333"
   viewBox="0 0 982.55066 648.47333"
   sodipodi:docname="c4c349640f1f5660b5c5828dea7c9d40.eps"
   xmlns:inkscape="http://www.inkscape.org/namespaces/inkscape"
   xmlns:sodipodi="http://sodipodi.sourceforge.net/DTD/sodipodi-0.dtd"
   xmlns="http://www.w3.org/2000/svg"
   xmlns:svg="http://www.w3.org/2000/svg"><defs
     id="defs6" /><sodipodi:namedview
     id="namedview4"
     pagecolor="#ffffff"
     bordercolor="#666666"
     borderopacity="1.0"
     inkscape:pageshadow="2"
     inkscape:pageopacity="0.0"
     inkscape:pagecheckerboard="0" /><g
     id="g8"
     inkscape:groupmode="layer"
     inkscape:label="ink_ext_XXXXXX"
     transform="matrix(1.3333333,0,0,-1.3333333,0,648.47332)"><g
       id="g10"
       transform="scale(0.1)"><path
         d="m 169.813,2562.37 v 1725.89 h 533.722 v -314.62 h 17.977 c 31.453,113.88 82.761,198.7 153.949,254.49 71.141,55.82 153.909,83.72 248.289,83.72 25.49,0 51.72,-1.7 78.66,-5.05 26.99,-3.35 52.09,-8.46 75.29,-15.17 v -477.55 c -26.22,8.96 -60.5,16.11 -102.8,21.38 -42.35,5.19 -79.97,7.82 -112.94,7.82 -65.151,0 -123.776,-14.4 -175.843,-43.24 -52.062,-28.82 -92.894,-68.96 -122.469,-120.22 -29.597,-51.31 -44.382,-111.45 -44.382,-180.36 V 2562.37 H 169.813"
         style="fill:#171717;fill-opacity:1;fill-rule:nonzero;stroke:none"
         id="path12" /><path
         d="m 2129,2529.76 c -180.56,0 -336.19,35.76 -466.89,107.32 -130.72,71.52 -231.07,173.79 -301.11,306.77 -70.09,132.95 -105.1,291.2 -105.1,474.71 0,178.28 35.24,334.26 105.65,467.99 70.4,133.73 169.67,237.84 297.74,312.37 128.11,74.53 279.04,111.81 452.84,111.81 122.84,0 235.2,-19.12 337.08,-57.29 101.87,-38.24 189.9,-94.81 264.07,-169.7 74.16,-74.9 131.82,-167.24 173.02,-276.97 41.18,-109.73 61.81,-235.41 61.81,-376.96 V 3292.72 H 1448.07 v 319.09 h 988.81 c -0.78,58.45 -14.61,110.5 -41.59,156.21 -26.96,45.7 -63.87,81.46 -110.68,107.3 -46.84,25.84 -100.56,38.74 -161.24,38.74 -61.45,0 -116.49,-13.64 -165.19,-41.01 -48.69,-27.31 -87.26,-64.38 -115.73,-111.24 -28.47,-46.79 -43.45,-99.8 -44.94,-158.99 v -324.71 c 0,-70.42 13.85,-132.05 41.57,-184.83 27.72,-52.84 67.03,-93.86 117.98,-123.05 50.94,-29.2 111.6,-43.81 182.05,-43.81 48.65,0 92.86,6.72 132.57,20.23 39.7,13.5 73.77,33.29 102.27,59.56 28.43,26.2 49.79,58.39 64.05,96.63 l 504.5,-14.58 c -21,-113.16 -66.88,-211.47 -137.66,-294.99 -70.79,-83.52 -163.48,-148.33 -278.07,-194.39 -114.65,-46.06 -247.21,-69.12 -397.77,-69.12"
         style="fill:#171717;fill-opacity:1;fill-rule:nonzero;stroke:none"
         id="path14" /><path
         d="m 3971.4,3883.77 h -753.95 v 404.49 h 753.95 z m -860.68,817.97 h 549.52 v -1596.7 c 0,-33.66 5.35,-60.83 16.3,-81.46 10.8,-20.58 26.67,-35.19 47.67,-43.78 21.02,-8.65 46.12,-12.93 75.33,-12.93 20.9,0 43.28,2.04 66.81,6.18 23.63,4.11 41.39,7.66 53.38,10.67 l 83.17,-396.67 c -26.25,-7.45 -63.11,-16.85 -110.71,-28.05 -47.59,-11.23 -104.31,-18.38 -170.19,-21.36 -128.88,-5.98 -239.18,9.19 -330.89,45.53 -91.77,36.29 -161.83,93.02 -210.14,170.22 -48.33,77.11 -71.74,174.13 -70.25,290.99 v 1657.36"
         style="fill:#171717;fill-opacity:1;fill-rule:nonzero;stroke:none"
         id="path16" /><path
         d="m 4551.22,1351.31 h -753.94 v 404.5 h 753.94 z m -860.65,817.97 h 549.51 V 572.609 c 0,-33.679 5.35,-60.828 16.28,-81.48 10.83,-20.59 26.68,-35.199 47.69,-43.789 21.02,-8.621 46.13,-12.93 75.32,-12.93 20.91,0 43.28,2.039 66.8,6.192 23.64,4.097 41.41,7.679 53.38,10.668 l 83.2,-396.6606 C 4556.5,47.1602 4519.61,37.7422 4472.01,26.5703 4424.44,15.3203 4367.73,8.17188 4301.85,5.17969 c -128.89,-5.988284 -239.2,9.19921 -330.92,45.56251 -91.77,36.2891 -161.81,93.0198 -210.14,170.2188 -48.31,77.09 -71.71,174.109 -70.22,290.988 V 2169.28"
         style="fill:#171717;fill-opacity:1;fill-rule:nonzero;stroke:none"
         id="path18" /><path
         d="m 4631.12,2533.17 c -110.15,0 -207.68,18.53 -292.72,55.56 -85.03,37.1 -152.06,93.29 -201.1,168.56 -49.07,75.32 -73.6,169.85 -73.6,283.73 0,95.86 16.81,176.8 50.53,242.72 33.7,65.91 80.16,119.44 139.35,160.66 59.13,41.18 127.31,72.49 204.48,93.82 77.15,21.38 159.56,35.76 247.23,43.28 98.1,8.99 177.11,18.55 237.1,28.62 59.87,10.13 103.52,24.73 130.86,43.87 27.32,19.06 41.05,46.21 41.05,81.46 v 5.61 c 0,57.67 -19.87,102.22 -59.59,133.67 -39.69,31.46 -93.26,47.22 -160.65,47.22 -72.71,0 -131.11,-15.76 -175.27,-47.22 -44.24,-31.45 -72.32,-74.88 -84.32,-130.3 l -506.73,17.96 c 14.97,104.89 53.72,198.7 116.27,281.49 62.57,82.76 148.71,147.9 258.43,195.47 109.77,47.6 241.76,71.39 396.08,71.39 110.15,0 211.63,-12.93 304.52,-38.75 92.88,-25.86 173.77,-63.36 242.72,-112.42 68.92,-49.05 122.27,-109.14 160.1,-180.32 37.82,-71.16 56.72,-152.42 56.72,-243.8 V 2562.36 h -516.83 v 240.45 h -13.5 c -30.73,-58.43 -69.86,-107.86 -117.45,-148.31 -47.51,-40.44 -103.35,-70.81 -167.39,-91.03 -64.01,-20.23 -136.14,-30.3 -216.29,-30.3 m 169.64,359.54 c 59.21,0 112.56,11.97 160.16,35.97 47.53,23.96 85.56,57.09 114.03,99.43 28.48,42.32 42.7,91.61 42.7,147.74 v 164.03 c -15.75,-8.25 -34.67,-15.7 -56.73,-22.42 -22.12,-6.78 -46.26,-13.13 -72.49,-19.12 -26.25,-5.99 -53.18,-11.24 -80.93,-15.77 -27.67,-4.45 -54.31,-8.6 -79.74,-12.34 -51.68,-8.23 -95.69,-20.95 -132.03,-38.17 -36.35,-17.24 -64.03,-39.56 -83.15,-66.85 -19.12,-27.38 -28.68,-59.79 -28.68,-97.23 0,-56.95 20.43,-100.39 61.24,-130.32 40.81,-30 92.71,-44.95 155.62,-44.95"
         style="fill:#171717;fill-opacity:1;fill-rule:nonzero;stroke:none"
         id="path20" /><path
         d="m 5950.26,4288.26 h 549.45 V 2562.37 h -549.45 v 1725.89"
         style="fill:#171717;fill-opacity:1;fill-rule:nonzero;stroke:none"
         id="path22" /><path
         d="m 5950.28,4442.11 h 549.45 v 421.44 h -549.45 v -421.44"
         style="fill:#171717;fill-opacity:1;fill-rule:nonzero;stroke:none"
         id="path24" /><path
         d="m 6819.68,2562.37 h 549.45 V 4863.55 H 6819.68 V 2562.37"
         style="fill:#171717;fill-opacity:1;fill-rule:nonzero;stroke:none"
         id="path26" /><path
         d="M 870.684,0 C 690.609,0 535.441,35.6602 405.105,107.012 274.664,178.34 174.559,280.34 104.781,412.941 34.9258,545.5 0,703.301 0,886.32 c 0,177.82 35.1133,333.39 105.293,466.75 70.266,133.34 169.203,237.15 297.012,311.5 127.718,74.32 278.195,111.46 451.531,111.46 122.531,0 234.564,-19.02 336.144,-57.11 101.57,-38.09 189.37,-94.51 263.33,-169.23 73.96,-74.69 131.5,-166.79 172.57,-276.18 41.1,-109.47 61.65,-234.76 61.65,-375.971 V 760.84 H 191.574 v 318.27 h 986.086 c -0.75,58.21 -14.56,110.15 -41.44,155.74 -26.86,45.53 -63.69,81.23 -110.38,106.99 -46.672,25.77 -100.254,38.68 -160.832,38.68 -61.219,0 -116.121,-13.64 -164.695,-40.92 -48.571,-27.25 -87.032,-64.24 -115.383,-110.92 -28.453,-46.69 -43.325,-99.57 -44.793,-158.59 V 746.281 c 0,-70.211 13.808,-131.66 41.402,-184.332 27.637,-52.64 66.832,-93.578 117.691,-122.699 50.801,-29.148 111.301,-43.691 181.485,-43.691 48.574,0 92.633,6.742 132.235,20.183 39.6,13.418 73.55,33.188 101.98,59.367 28.38,26.141 49.66,58.282 63.87,96.36 l 503.15,-14.547 C 1660.99,444.09 1615.2,346.051 1544.61,262.789 1474.1,179.441 1381.63,114.852 1267.31,68.9102 1152.99,22.9688 1020.84,0 870.684,0"
         style="fill:#171717;fill-opacity:1;fill-rule:nonzero;stroke:none"
         id="path28" /><path
         d="M 2370.88,1014.09 V 32.5 h -547.92 v 1721.15 h 521.06 v -316.01 h 19.06 c 38.05,105.35 103.06,188.08 194.94,248.19 91.87,60.13 201.36,90.2 328.34,90.2 121.06,0 226.18,-27.06 315.41,-81.23 89.26,-54.17 158.71,-129.63 208.45,-226.34 49.61,-96.74 74.12,-209.73 73.38,-338.94 V 32.5 h -547.94 v 989.44 c 0.74,95.62 -23.34,170.32 -72.24,224.08 -48.98,53.79 -116.79,80.7 -203.39,80.7 -57.54,0 -108.18,-12.53 -151.81,-37.55 -43.73,-25.02 -77.35,-60.69 -100.92,-107.02 -23.51,-46.3 -35.67,-102.35 -36.42,-168.06"
         style="fill:#171717;fill-opacity:1;fill-rule:nonzero;stroke:none"
         id="path30" /><path
         d="m 5225.85,304.98 c 0,-150.5 -121.98,-272.48 -272.46,-272.48 -150.49,0 -272.47,121.98 -272.47,272.48 0,150.469 121.98,272.461 272.47,272.461 150.48,0 272.46,-121.992 272.46,-272.461"
         style="fill:#171717;fill-opacity:1;fill-rule:nonzero;stroke:none"
         id="path32" /></g></g></svg>
