<?xml version="1.0" encoding="UTF-8"?><svg id="Lager_2" xmlns="http://www.w3.org/2000/svg" xmlns:xlink="http://www.w3.org/1999/xlink" viewBox="0 0 452.012 424"><defs><style>.cls-1{fill:none;}.cls-2{clip-path:url(#clippath);}.cls-3{fill:#fff;}.cls-4{clip-path:url(#clippath-1);}.cls-5{isolation:isolate;}</style><clipPath id="clippath"><rect class="cls-1" x="4.997" y="242.09" width="236.015" height="155.787"/></clipPath><clipPath id="clippath-1"><rect class="cls-1" x="4.997" y="242.09" width="236.015" height="155.787"/></clipPath></defs><g class="cls-5"><path class="cls-3" d="m60.473,81.995c0,13.05-11.587,18.356-22.93,18.356H4.491v-.488c5.915,0,6.403-3.842,6.525-11.404v-48.726c-.122-7.562-.61-11.404-6.525-11.404v-.549h29.15c10.062,0,21.771,5.062,21.771,18.173,0,10.672-7.806,15.978-16.77,17.502,10.001,0,21.832,5.488,21.832,18.539ZM26.566,28.33c-5.915,0-6.525,3.842-6.525,11.404v23.722h11.099c7.806,0,14.331-4.452,14.331-17.502s-8.294-17.624-14.331-17.624h-4.574Zm23.844,53.665c0-13.05-9.026-18.051-15.002-18.051h-15.368v24.454c0,7.562.61,11.404,6.525,11.404h8.782c6.525.061,15.063-4.757,15.063-17.807Z"/><path class="cls-3" d="m121.334,82.849l-4.269,17.502h-50.311v-.488c5.915,0,6.525-3.842,6.525-11.404v-48.726c0-7.562-.61-11.404-6.525-11.404v-.549h46.957l3.537,14.331h-.488c-2.988-6.708-8.904-13.782-19.271-13.782h-8.599c-5.915,0-6.403,3.842-6.525,11.404v24.271h7.562c8.111,0,14.514-5.793,14.514-12.745h.488v26.04h-.488c0-6.952-6.403-12.745-14.514-12.745h-7.562v23.966c.122,7.562.61,11.404,6.525,11.404h11.831c10.489,0,17.075-10.245,20.124-17.014h.488v-.061Z"/><path class="cls-3" d="m192.014,90.594v1.525c-5.61,4.452-12.014,8.172-23.539,8.904-21.588,1.342-40.249-10.916-42.2-33.48-2.073-22.686,14.087-38.541,35.553-40.554,6.525-.549,14.819,1.037,20.856,2.5,5.306,1.22,7.562,1.525,7.562-5.488h.549v26.101h-.549c0-6.708-6.342-15.429-12.563-19.088-5.062-2.683-10.672-3.964-15.856-3.537-15.734,1.464-27.076,18.844-25.308,39.09,1.769,20.124,15.551,34.333,31.833,33.907,9.879-.122,17.868-4.574,23.661-9.879Z"/><path class="cls-3" d="m266.962,99.863v.488h-22.808v-.488c5.001,0,5.732-1.951,2.927-9.513-1.037-2.805-3.964-10.367-7.135-18.783h-24.881c-1.769,4.452-2.988,7.684-3.293,8.477-3.232,8.782-2.378,19.82,4.574,19.82v.488h-22.137v-.488c6.647-1.159,11.526-5.732,15.551-16.039,3.537-9.026,21.893-55.982,21.893-55.982h.915s19.576,51.531,22.381,58.178c2.683,6.525,5.61,13.843,12.014,13.843Zm-27.259-28.845c-5.488-14.392-11.892-31.101-12.136-31.589-3.72,9.513-8.904,22.808-12.319,31.589h24.454Z"/><path class="cls-3" d="m329.896,27.781v.549c-5.915,0-6.525,3.72-6.525,11.404v38.053c0,18.173-11.831,23.661-23.661,23.661-11.282,0-26.101-5.488-26.101-23.661v-38.053c0-7.684-.61-11.404-6.525-11.404v-.549h22.076v.549c-5.915,0-6.403,3.72-6.525,11.404v39.273c0,13.355,7.379,21.649,17.075,21.649,16.039,0,23.113-9.147,23.113-22.93v-38.053c0-7.684-.61-11.404-6.525-11.404v-.488h13.599Z"/><path class="cls-3" d="m385.147,82.3c0,12.745-10.489,19.088-24.576,19.088-5.61,0-11.282-1.22-14.636-1.951-3.232-.854-8.721-2.256-8.721,4.757h-.549v-26.101h.549c0,6.037,6.952,22.808,23.296,22.808,9.452,0,15.856-6.037,15.856-14.514,0-18.356-37.932-19.576-37.932-41.469,0-12.319,10.55-18.112,21.588-18.112,5.793,0,10.55,1.89,15.124,2.988,3.72,1.037,5.671,0,5.671-5.732h.488v26.101h-.488c0-12.624-8.294-22.93-20.551-22.93-6.708,0-13.904,4.025-13.904,14.087.122,17.563,38.785,19.82,38.785,40.981Z"/><path class="cls-3" d="m447.533,82.849l-4.269,17.502h-50.25v-.488c5.915,0,6.525-3.842,6.525-11.404v-48.726c0-7.562-.61-11.404-6.525-11.404v-.549h46.957l3.537,14.331h-.488c-2.988-6.708-8.904-13.782-19.271-13.782h-8.599c-5.915,0-6.403,3.842-6.525,11.404v24.271h7.562c8.111,0,14.514-5.793,14.514-12.745h.488v26.04h-.488c0-6.952-6.403-12.745-14.514-12.745h-7.562v23.966c.122,7.562.61,11.404,6.525,11.404h11.831c10.489,0,17.075-10.245,20.124-17.014h.427v-.061Z"/></g><g id="Layer_1"><g><path class="cls-3" d="m10.441,315.797v-55.278h17.099v10.08h.577c1.009-3.648,2.65-6.365,4.935-8.15s4.935-2.684,7.951-2.684c.821,0,1.652.055,2.517.166.865.111,1.663.266,2.406.488v15.303c-.843-.288-1.941-.521-3.293-.688-1.353-.166-2.562-.255-3.615-.255-2.085,0-3.97.466-5.633,1.386s-2.972,2.207-3.925,3.848-1.419,3.571-1.419,5.777v30.018H10.441v-.011Z"/><path class="cls-3" d="m73.193,316.851c-5.788,0-10.767-1.142-14.959-3.438s-7.396-5.567-9.647-9.825c-2.24-4.258-3.371-9.326-3.371-15.203s1.131-10.712,3.382-14.992,5.434-7.618,9.536-10.002c4.103-2.384,8.938-3.582,14.504-3.582,3.937,0,7.529.61,10.801,1.841,3.26,1.22,6.088,3.038,8.461,5.434s4.225,5.356,5.544,8.871,1.985,7.54,1.985,12.076v4.391h-48.048v-10.224h31.67c-.022-1.874-.466-3.537-1.331-5.001-.865-1.464-2.051-2.606-3.548-3.438s-3.216-1.242-5.167-1.242-3.737.432-5.289,1.308c-1.564.876-2.794,2.063-3.704,3.56-.909,1.497-1.397,3.194-1.442,5.09v10.401c0,2.251.444,4.225,1.331,5.921s2.151,3.005,3.781,3.937,3.571,1.408,5.833,1.408c1.564,0,2.972-.211,4.247-.643,1.275-.432,2.362-1.065,3.271-1.907.909-.843,1.597-1.874,2.051-3.094l16.156.466c-.676,3.626-2.14,6.775-4.413,9.448-2.262,2.672-5.234,4.746-8.904,6.232-3.67,1.475-7.917,2.218-12.741,2.218"/><g class="cls-2"><g><path class="cls-3" d="m132.208,273.471h-24.152v-12.952h24.152v12.952h0Zm-27.567-26.203h17.598v51.142c0,1.076.166,1.952.521,2.606.344.654.854,1.131,1.53,1.397.676.277,1.475.41,2.417.41.665,0,1.386-.067,2.14-.2s1.331-.244,1.708-.344l2.661,12.708c-.843.244-2.018.543-3.548.898-1.519.355-3.338.588-5.456.688-4.125.189-7.662-.299-10.601-1.464-2.939-1.164-5.178-2.983-6.731-5.456s-2.295-5.578-2.251-9.326v-53.06h.011Z"/><path class="cls-3" d="m150.782,354.597h-24.152v-12.952h24.152v12.952h0Zm-27.567-26.203h17.598v51.142c0,1.076.166,1.952.521,2.606.344.654.854,1.131,1.53,1.397.676.277,1.475.41,2.417.41.665,0,1.386-.067,2.14-.2.754-.133,1.331-.244,1.708-.344l2.661,12.708c-.843.244-2.018.543-3.548.898-1.519.355-3.338.588-5.456.688-4.125.189-7.662-.299-10.601-1.464-2.939-1.164-5.178-2.983-6.731-5.456s-2.295-5.578-2.251-9.326v-53.093h0l.011.033Z"/></g></g><path class="cls-3" d="m153.343,316.74c-3.526,0-6.653-.599-9.381-1.774-2.728-1.187-4.868-2.983-6.443-5.4s-2.362-5.445-2.362-9.093c0-3.072.543-5.666,1.619-7.773s2.573-3.826,4.469-5.145,4.081-2.318,6.554-3.005,5.112-1.142,7.917-1.386c3.138-.288,5.677-.599,7.596-.92,1.918-.322,3.316-.787,4.192-1.408.876-.61,1.32-1.475,1.32-2.606v-.177c0-1.852-.632-3.271-1.907-4.28s-2.983-1.508-5.145-1.508c-2.329,0-4.203.51-5.611,1.508-1.419,1.009-2.318,2.395-2.706,4.169l-16.234-.577c.477-3.36,1.719-6.365,3.726-9.015,2.007-2.65,4.768-4.735,8.283-6.265,3.515-1.519,7.74-2.284,12.686-2.284,3.526,0,6.775.41,9.758,1.242,2.972.832,5.567,2.029,7.773,3.604,2.207,1.575,3.914,3.493,5.123,5.777,1.209,2.284,1.819,4.879,1.819,7.807v37.58h-16.556v-7.707h-.432c-.987,1.874-2.24,3.46-3.759,4.746-1.519,1.297-3.316,2.273-5.367,2.916-2.051.643-4.358.976-6.931.976m5.434-11.521c1.896,0,3.604-.388,5.134-1.153,1.519-.765,2.739-1.83,3.648-3.182.909-1.353,1.364-2.939,1.364-4.735v-5.256c-.499.266-1.109.499-1.819.721s-1.486.421-2.318.61c-.843.189-1.708.355-2.595.51-.887.144-1.741.277-2.55.399-1.652.266-3.061.676-4.225,1.22-1.164.554-2.051,1.264-2.661,2.14-.61.876-.92,1.918-.92,3.116,0,1.83.654,3.216,1.963,4.169,1.308.965,2.972,1.442,4.99,1.442"/><g class="cls-4"><g><polygon class="cls-3" points="195.603 260.519 213.201 260.519 213.201 315.797 195.603 315.797 195.603 260.519 195.603 260.519"/><polygon class="cls-3" points="195.603 255.585 213.201 255.585 213.201 242.09 195.603 242.09 195.603 255.585 195.603 255.585"/><polygon class="cls-3" points="223.447 315.797 241.045 315.797 241.045 242.09 223.447 242.09 223.447 315.797 223.447 315.797"/></g></g><path class="cls-3" d="m32.885,397.877c-5.766,0-10.734-1.142-14.914-3.426-4.18-2.284-7.385-5.556-9.625-9.803-2.229-4.236-3.349-9.292-3.349-15.158s1.12-10.679,3.371-14.948c2.251-4.269,5.422-7.596,9.514-9.98,4.092-2.384,8.915-3.571,14.46-3.571,3.925,0,7.518.61,10.767,1.83,3.249,1.22,6.066,3.027,8.439,5.422,2.373,2.395,4.214,5.345,5.533,8.849,1.32,3.504,1.974,7.518,1.974,12.042v4.38H11.129v-10.191h31.592c-.022-1.863-.466-3.526-1.331-4.99-.865-1.464-2.04-2.606-3.537-3.426s-3.216-1.242-5.156-1.242-3.715.432-5.278,1.308c-1.552.876-2.783,2.063-3.693,3.548-.909,1.497-1.386,3.194-1.43,5.079v10.368c0,2.251.444,4.214,1.331,5.899.887,1.686,2.14,2.994,3.77,3.925s3.571,1.397,5.811,1.397c1.552,0,2.972-.211,4.236-.643s2.351-1.065,3.271-1.907c.909-.843,1.586-1.863,2.051-3.083l16.112.466c-.676,3.615-2.14,6.753-4.402,9.426s-5.223,4.735-8.882,6.21c-3.659,1.475-7.895,2.207-12.708,2.207"/><path class="cls-3" d="m80.944,365.398v31.448h-17.554v-55.134h16.689v10.124h.61c1.22-3.371,3.304-6.021,6.243-7.951,2.939-1.929,6.454-2.894,10.512-2.894s7.241.865,10.102,2.606c2.861,1.73,5.079,4.147,6.675,7.252,1.586,3.094,2.373,6.72,2.351,10.856v35.141h-17.554v-31.692c.022-3.061-.743-5.456-2.318-7.174-1.564-1.719-3.737-2.584-6.52-2.584-1.841,0-3.471.399-4.868,1.198s-2.473,1.941-3.238,3.426c-.754,1.486-1.142,3.282-1.164,5.378"/><path class="cls-3" d="m172.394,388.108c0,4.824-3.903,8.727-8.727,8.727s-8.727-3.903-8.727-8.727,3.903-8.727,8.727-8.727,8.727,3.903,8.727,8.727"/></g></g><path class="cls-3" d="m27.205,178.307l-17.657-23.11h5.095l9.23,12.203c1.919,2.627,3.919,5.455,6.064,8.055h.4c2.091-2.6,4.383-5.6,6.302-8.228l8.948-12.03h4.867l-17.856,23.3,19.402,24.72h-5.122l-10.148-13.021c-2.173-2.7-4.519-6.073-6.837-8.874h-.4c-2.292,2.973-4.438,5.8-6.729,8.974l-9.895,12.921h-4.867l19.202-24.91Z"/></svg>