<?xml version="1.0" encoding="UTF-8"?><svg id="Lager_2" xmlns="http://www.w3.org/2000/svg" xmlns:xlink="http://www.w3.org/1999/xlink" viewBox="0 0 486 78.917"><defs><style>.cls-1{fill:none;}.cls-2{clip-path:url(#clippath);}.cls-3{fill:#fff;}.cls-4{clip-path:url(#clippath-1);}.cls-5{isolation:isolate;}</style><clipPath id="clippath"><rect class="cls-1" x="373" y="3.996" width="100" height="66.007"/></clipPath><clipPath id="clippath-1"><rect class="cls-1" x="373" y="3.996" width="100" height="66.007"/></clipPath></defs><g class="cls-5"><path class="cls-3" d="m44.15,50.974c0,8.66-7.689,12.181-15.216,12.181H7v-.324c3.925,0,4.249-2.549,4.33-7.568V22.929c-.081-5.018-.405-7.568-4.33-7.568v-.364h19.344c6.677,0,14.447,3.359,14.447,12.059,0,7.082-5.18,10.603-11.129,11.614,6.637,0,14.488,3.642,14.488,12.302ZM21.649,15.362c-3.925,0-4.33,2.549-4.33,7.568v15.742h7.365c5.18,0,9.51-2.954,9.51-11.614s-5.504-11.695-9.51-11.695h-3.035Zm15.823,35.612c0-8.66-5.989-11.979-9.955-11.979h-10.198v16.228c0,5.018.405,7.568,4.33,7.568h5.827c4.33.04,9.996-3.156,9.996-11.817Z"/><path class="cls-3" d="m84.537,51.54l-2.833,11.614h-33.386v-.324c3.925,0,4.33-2.549,4.33-7.568V22.929c0-5.018-.405-7.568-4.33-7.568v-.364h31.16l2.347,9.51h-.324c-1.983-4.451-5.908-9.146-12.788-9.146h-5.706c-3.925,0-4.249,2.549-4.33,7.568v16.106h5.018c5.382,0,9.631-3.844,9.631-8.458h.324v17.28h-.324c0-4.613-4.249-8.458-9.631-8.458h-5.018v15.904c.081,5.018.405,7.568,4.33,7.568h7.851c6.96,0,11.331-6.799,13.354-11.291h.324v-.04Z"/><path class="cls-3" d="m131.439,56.68v1.012c-3.723,2.954-7.972,5.423-15.621,5.908-14.326.89-26.709-7.244-28.004-22.217-1.376-15.054,9.348-25.576,23.593-26.911,4.33-.364,9.834.688,13.84,1.659,3.521.809,5.018,1.012,5.018-3.642h.364v17.32h-.364c0-4.451-4.209-10.238-8.336-12.666-3.359-1.781-7.082-2.63-10.522-2.347-10.441.971-17.968,12.505-16.794,25.94,1.174,13.354,10.319,22.783,21.124,22.5,6.556-.081,11.857-3.035,15.702-6.556Z"/><path class="cls-3" d="m181.174,62.831v.324h-15.135v-.324c3.318,0,3.804-1.295,1.942-6.313-.688-1.862-2.63-6.88-4.735-12.464h-16.511c-1.174,2.954-1.983,5.099-2.185,5.625-2.145,5.827-1.578,13.152,3.035,13.152v.324h-14.69v-.324c4.411-.769,7.648-3.804,10.319-10.643,2.347-5.989,14.528-37.15,14.528-37.15h.607s12.99,34.195,14.852,38.606c1.781,4.33,3.723,9.186,7.972,9.186Zm-18.089-19.141c-3.642-9.55-7.891-20.639-8.053-20.962-2.469,6.313-5.908,15.135-8.175,20.962h16.228Z"/><path class="cls-3" d="m222.937,14.998v.364c-3.925,0-4.33,2.469-4.33,7.568v25.252c0,12.059-7.851,15.702-15.702,15.702-7.487,0-17.32-3.642-17.32-15.702v-25.252c0-5.099-.405-7.568-4.33-7.568v-.364h14.649v.364c-3.925,0-4.249,2.469-4.33,7.568v26.061c0,8.862,4.897,14.366,11.331,14.366,10.643,0,15.337-6.07,15.337-15.216v-25.252c0-5.099-.405-7.568-4.33-7.568v-.324h9.024Z"/><path class="cls-3" d="m259.601,51.176c0,8.458-6.961,12.666-16.309,12.666-3.723,0-7.487-.809-9.712-1.295-2.145-.567-5.787-1.497-5.787,3.156h-.364v-17.32h.364c0,4.006,4.613,15.135,15.459,15.135,6.273,0,10.522-4.006,10.522-9.631,0-12.181-25.171-12.99-25.171-27.518,0-8.175,7.001-12.019,14.326-12.019,3.844,0,7.001,1.255,10.036,1.983,2.469.688,3.764,0,3.764-3.804h.324v17.32h-.324c0-8.377-5.504-15.216-13.638-15.216-4.451,0-9.227,2.671-9.227,9.348.081,11.655,25.738,13.152,25.738,27.194Z"/><path class="cls-3" d="m301,51.54l-2.833,11.614h-33.346v-.324c3.925,0,4.33-2.549,4.33-7.568V22.929c0-5.018-.405-7.568-4.33-7.568v-.364h31.16l2.347,9.51h-.324c-1.983-4.451-5.908-9.146-12.788-9.146h-5.706c-3.925,0-4.249,2.549-4.33,7.568v16.106h5.018c5.382,0,9.631-3.844,9.631-8.458h.324v17.28h-.324c0-4.613-4.249-8.458-9.631-8.458h-5.018v15.904c.081,5.018.405,7.568,4.33,7.568h7.851c6.961,0,11.331-6.799,13.354-11.291h.283v-.04Z"/></g><g id="Layer_1"><g><path class="cls-3" d="m375.307,35.226V11.805h7.245v4.271h.244c.428-1.546,1.123-2.697,2.091-3.453s2.091-1.137,3.369-1.137c.348,0,.7.023,1.067.07.366.047.705.113,1.02.207v6.484c-.357-.122-.822-.221-1.395-.291-.573-.07-1.085-.108-1.532-.108-.883,0-1.682.197-2.387.587s-1.259.935-1.663,1.63-.601,1.513-.601,2.448v12.718h-7.456v-.005Z"/><path class="cls-3" d="m401.895,35.673c-2.453,0-4.562-.484-6.338-1.456s-3.134-2.359-4.088-4.163c-.949-1.804-1.428-3.951-1.428-6.441s.479-4.539,1.433-6.352c.954-1.814,2.302-3.228,4.041-4.238,1.738-1.01,3.787-1.518,6.145-1.518,1.668,0,3.19.258,4.576.78,1.381.517,2.579,1.287,3.585,2.302s1.79,2.269,2.349,3.759.841,3.195.841,5.117v1.861h-20.358v-4.332h13.419c-.009-.794-.197-1.499-.564-2.119-.366-.62-.869-1.104-1.503-1.456s-1.363-.526-2.189-.526-1.583.183-2.241.554c-.662.371-1.184.874-1.569,1.508-.385.634-.592,1.353-.611,2.157v4.407c0,.954.188,1.79.564,2.509s.911,1.273,1.602,1.668,1.513.597,2.471.597c.662,0,1.259-.089,1.799-.273.54-.183,1.001-.451,1.386-.808.385-.357.677-.794.869-1.311l6.846.197c-.287,1.536-.907,2.871-1.87,4.003-.958,1.132-2.218,2.011-3.773,2.64-1.555.625-3.355.94-5.398.94"/><g class="cls-2"><g><path class="cls-3" d="m426.9,17.293h-10.233v-5.488h10.233v5.488h0Zm-11.68-11.102h7.456v21.669c0,.456.07.827.221,1.104.146.277.362.479.648.592.287.117.625.174,1.024.174.282,0,.587-.028.907-.085s.564-.103.724-.146l1.128,5.384c-.357.103-.855.23-1.503.381-.644.15-1.414.249-2.312.291-1.748.08-3.247-.127-4.492-.62-1.245-.493-2.194-1.264-2.852-2.312s-.973-2.363-.954-3.951V6.19h.005Z"/><path class="cls-3" d="m434.769,51.666h-10.233v-5.488h10.233v5.488h0Zm-11.68-11.102h7.456v21.669c0,.456.07.827.221,1.104.146.277.362.479.648.592.287.117.625.174,1.024.174.282,0,.587-.028.907-.085.319-.056.564-.103.724-.146l1.128,5.384c-.357.103-.855.23-1.503.381-.644.15-1.414.249-2.312.291-1.748.08-3.247-.127-4.492-.62-1.245-.493-2.194-1.264-2.852-2.312s-.973-2.363-.954-3.951v-22.496h0l.005.014Z"/></g></g><path class="cls-3" d="m435.855,35.626c-1.494,0-2.819-.254-3.975-.752-1.156-.503-2.063-1.264-2.73-2.288s-1.001-2.307-1.001-3.853c0-1.301.23-2.401.686-3.294s1.09-1.621,1.893-2.18,1.729-.982,2.777-1.273,2.166-.484,3.355-.587c1.33-.122,2.406-.254,3.218-.39.813-.136,1.405-.334,1.776-.597.371-.258.559-.625.559-1.104v-.075c0-.785-.268-1.386-.808-1.814s-1.264-.639-2.18-.639c-.987,0-1.781.216-2.377.639-.601.428-.982,1.015-1.146,1.767l-6.878-.244c.202-1.424.728-2.697,1.579-3.82.85-1.123,2.02-2.006,3.51-2.655,1.489-.644,3.279-.968,5.375-.968,1.494,0,2.871.174,4.135.526,1.259.352,2.359.86,3.294,1.527.935.667,1.659,1.48,2.171,2.448.512.968.771,2.067.771,3.308v15.923h-7.015v-3.265h-.183c-.418.794-.949,1.466-1.593,2.011-.644.55-1.405.963-2.274,1.236-.869.273-1.846.413-2.936.413m2.302-4.882c.803,0,1.527-.164,2.175-.489.644-.324,1.16-.775,1.546-1.348.385-.573.578-1.245.578-2.006v-2.227c-.211.113-.47.211-.771.305s-.63.179-.982.258c-.357.08-.724.15-1.099.216-.376.061-.738.117-1.081.169-.7.113-1.297.287-1.79.517-.493.235-.869.536-1.128.907-.258.371-.39.813-.39,1.32,0,.775.277,1.363.832,1.767.554.409,1.259.611,2.114.611"/><g class="cls-4"><g><polygon class="cls-3" points="453.76 11.805 461.216 11.805 461.216 35.226 453.76 35.226 453.76 11.805 453.76 11.805"/><polygon class="cls-3" points="453.76 9.714 461.216 9.714 461.216 3.996 453.76 3.996 453.76 9.714 453.76 9.714"/><polygon class="cls-3" points="465.558 35.226 473.014 35.226 473.014 3.996 465.558 3.996 465.558 35.226 465.558 35.226"/></g></g><path class="cls-3" d="m384.816,70.004c-2.443,0-4.548-.484-6.319-1.452-1.771-.968-3.129-2.354-4.078-4.153-.944-1.795-1.419-3.937-1.419-6.423s.475-4.525,1.428-6.333c.954-1.809,2.298-3.218,4.031-4.229,1.734-1.01,3.777-1.513,6.127-1.513,1.663,0,3.185.258,4.562.775,1.377.517,2.57,1.283,3.575,2.298,1.005,1.015,1.785,2.265,2.344,3.749.559,1.485.836,3.185.836,5.102v1.856h-20.306v-4.318h13.386c-.009-.789-.197-1.494-.564-2.114-.366-.62-.864-1.104-1.499-1.452s-1.363-.526-2.185-.526-1.574.183-2.236.554c-.658.371-1.179.874-1.565,1.503-.385.634-.587,1.353-.606,2.152v4.393c0,.954.188,1.785.564,2.5.376.714.907,1.269,1.597,1.663s1.513.592,2.462.592c.658,0,1.259-.089,1.795-.273s.996-.451,1.386-.808c.385-.357.672-.789.869-1.306l6.827.197c-.287,1.532-.907,2.861-1.865,3.994s-2.213,2.006-3.763,2.631c-1.55.625-3.345.935-5.384.935"/><path class="cls-3" d="m405.179,56.242v13.325h-7.438v-23.36h7.071v4.29h.258c.517-1.428,1.4-2.551,2.645-3.369,1.245-.818,2.734-1.226,4.454-1.226s3.068.366,4.28,1.104c1.212.733,2.152,1.757,2.828,3.073.672,1.311,1.005,2.847.996,4.6v14.889h-7.438v-13.428c.009-1.297-.315-2.312-.982-3.04-.662-.728-1.583-1.095-2.763-1.095-.78,0-1.471.169-2.063.507s-1.048.822-1.372,1.452c-.319.63-.484,1.391-.493,2.279"/><path class="cls-3" d="m443.927,65.864c0,2.044-1.654,3.698-3.698,3.698s-3.698-1.654-3.698-3.698,1.654-3.698,3.698-3.698,3.698,1.654,3.698,3.698"/></g></g><path class="cls-3" d="m334.047,39.536l-9.124-12.944h2.633l4.77,6.835c.992,1.472,2.025,3.055,3.135,4.512h.206c1.081-1.457,2.266-3.137,3.257-4.608l4.624-6.738h2.516l-9.228,13.051,10.026,13.846h-2.646l-5.245-7.293c-1.123-1.513-2.335-3.402-3.533-4.97h-.207c-1.184,1.665-2.293,3.249-3.477,5.026l-5.113,7.237h-2.516l9.923-13.953Z"/></svg>