<?xml version="1.0" encoding="utf-8"?>
<!-- Generator: Adobe Illustrator 25.0.1, SVG Export Plug-In . SVG Version: 6.00 Build 0)  -->
<svg version="1.1" id="Layer_1" xmlns="http://www.w3.org/2000/svg" xmlns:xlink="http://www.w3.org/1999/xlink" x="0px" y="0px"
	 viewBox="0 0 801 400" style="enable-background:new 0 0 801 400;" xml:space="preserve">
<style type="text/css">
	.st0{enable-background:new    ;}
	.st1{fill:#FFFFFF;}
</style>
<g class="st0">
	<path class="st1" d="M132.7,222.9c0,21.4-19,30.1-37.6,30.1H40.9v-0.8c9.7,0,10.5-6.3,10.7-18.7v-79.9c-0.2-12.4-1-18.7-10.7-18.7
		V134h47.8c16.5,0,35.7,8.3,35.7,29.8c0,17.5-12.8,26.2-27.5,28.7C113.3,192.5,132.7,201.5,132.7,222.9z M77.1,134.9
		c-9.7,0-10.7,6.3-10.7,18.7v38.9c6.3,0,13.8,0,18.2,0c12.8,0,23.5-7.3,23.5-28.7s-13.6-28.9-23.5-28.9H77.1z M116.2,222.9
		c0-21.4-14.8-29.6-24.6-29.6c0,0-23.3,0-25.2,0v40.1c0,12.4,1,18.7,10.7,18.7c5.1,0,10.7,0,14.4,0
		C102.2,252.2,116.2,244.3,116.2,222.9z"/>
	<path class="st1" d="M232.5,224.3l-7,28.7H143v-0.8c9.7,0,10.7-6.3,10.7-18.7v-79.9c0-12.4-1-18.7-10.7-18.7V134h77l5.8,23.5H225
		c-4.9-11-14.6-22.6-31.6-22.6h-14.1c-9.7,0-10.5,6.3-10.7,18.7v39.8H181c13.3,0,23.8-9.5,23.8-20.9h0.8v42.7h-0.8
		c0-11.4-10.5-20.9-23.8-20.9h-12.4v39.3c0.2,12.4,1,18.7,10.7,18.7h19.4c17.2,0,28-16.8,33-27.9H232.5z"/>
	<path class="st1" d="M348.4,237v2.5c-9.2,7.3-19.7,13.4-38.6,14.6c-35.4,2.2-66-17.9-69.2-54.9c-3.4-37.2,23.1-63.2,58.3-66.5
		c10.7-0.9,24.3,1.7,34.2,4.1c8.7,2,12.4,2.5,12.4-9h0.9v42.8h-0.9c0-11-10.4-25.3-20.6-31.3c-8.3-4.4-17.5-6.5-26-5.8
		c-25.8,2.4-44.4,30.9-41.5,64.1c2.9,33,25.5,56.3,52.2,55.6C325.8,253,338.9,245.7,348.4,237z"/>
	<path class="st1" d="M471.3,252.2v0.8h-37.4v-0.8c8.2,0,9.4-3.2,4.8-15.6c-1.7-4.6-6.5-17-11.7-30.8h-40.8
		c-2.9,7.3-4.9,12.6-5.4,13.9c-5.3,14.4-3.9,32.5,7.5,32.5v0.8H352v-0.8c10.9-1.9,18.9-9.4,25.5-26.3c5.8-14.8,35.9-91.8,35.9-91.8
		h1.5c0,0,32.1,84.5,36.7,95.4C456,240.2,460.8,252.2,471.3,252.2z M426.6,204.9c-9-23.6-19.5-51-19.9-51.8
		c-6.1,15.6-14.6,37.4-20.2,51.8H426.6z"/>
	<path class="st1" d="M574.5,134v0.9c-9.7,0-10.7,6.1-10.7,18.7v62.4c0,29.8-19.4,38.8-38.8,38.8c-18.5,0-42.8-9-42.8-38.8v-62.4
		c0-12.6-1-18.7-10.7-18.7V134h36.2v0.9c-9.7,0-10.5,6.1-10.7,18.7V218c0,21.9,12.1,35.5,28,35.5c26.3,0,37.9-15,37.9-37.6v-62.4
		c0-12.6-1-18.7-10.7-18.7V134H574.5z"/>
	<path class="st1" d="M665.1,223.4c0,20.9-17.2,31.3-40.3,31.3c-9.2,0-18.5-2-24-3.2c-5.3-1.4-14.3-3.7-14.3,7.8h-0.9v-42.8h0.9
		c0,9.9,11.4,37.4,38.2,37.4c15.5,0,26-9.9,26-23.8c0-30.1-62.2-32.1-62.2-68c0-20.2,17.3-29.7,35.4-29.7c9.5,0,17.3,3.1,24.8,4.9
		c6.1,1.7,9.3,0,9.3-9.4h0.8v42.8h-0.8c0-20.7-13.6-37.6-33.7-37.6c-11,0-22.8,6.6-22.8,23.1C601.7,185,665.1,188.7,665.1,223.4z"/>
	<path class="st1" d="M767.4,224.3l-7,28.7H678v-0.8c9.7,0,10.7-6.3,10.7-18.7v-79.9c0-12.4-1-18.7-10.7-18.7V134h77l5.8,23.5H760
		c-4.9-11-14.6-22.6-31.6-22.6h-14.1c-9.7,0-10.5,6.3-10.7,18.7v39.8h12.4c13.3,0,23.8-9.5,23.8-20.9h0.8v42.7h-0.8
		c0-11.4-10.5-20.9-23.8-20.9h-12.4v39.3c0.2,12.4,1,18.7,10.7,18.7h19.4c17.2,0,28-16.8,33-27.9H767.4z"/>
</g>
</svg>