<?xml version="1.0" encoding="UTF-8"?>
<svg id="Lager_2" data-name="Lager 2" xmlns="http://www.w3.org/2000/svg" xmlns:xlink="http://www.w3.org/1999/xlink" viewBox="0 0 212.84 140.49">
  <defs>
    <style>
      .cls-1 {
        fill: none;
      }

      .cls-2 {
        clip-path: url(#clippath);
      }

      .cls-3 {
        fill: #fff;
      }

      .cls-4 {
        clip-path: url(#clippath-1);
      }
    </style>
    <clipPath id="clippath">
      <rect class="cls-1" x="0" width="212.84" height="140.49"/>
    </clipPath>
    <clipPath id="clippath-1">
      <rect class="cls-1" width="212.84" height="140.49"/>
    </clipPath>
  </defs>
  <g id="Layer_1" data-name="Layer 1">
    <g>
      <path class="cls-3" d="m4.91,66.47V16.62h15.42v9.09h.52c.91-3.29,2.39-5.74,4.45-7.35,2.06-1.61,4.45-2.42,7.17-2.42.74,0,1.49.05,2.27.15.78.1,1.5.24,2.17.44v13.8c-.76-.26-1.75-.47-2.97-.62-1.22-.15-2.31-.23-3.26-.23-1.88,0-3.58.42-5.08,1.25-1.5.83-2.68,1.99-3.54,3.47-.86,1.48-1.28,3.22-1.28,5.21v27.07H4.91Z"/>
      <path class="cls-3" d="m61.5,67.42c-5.22,0-9.71-1.03-13.49-3.1-3.78-2.07-6.67-5.02-8.7-8.86-2.02-3.84-3.04-8.41-3.04-13.71s1.02-9.66,3.05-13.52c2.03-3.86,4.9-6.87,8.6-9.02,3.7-2.15,8.06-3.23,13.08-3.23,3.55,0,6.79.55,9.74,1.66,2.94,1.1,5.49,2.74,7.63,4.9,2.14,2.16,3.81,4.83,5,8,1.19,3.17,1.79,6.8,1.79,10.89v3.96h-43.33v-9.22h28.56c-.02-1.69-.42-3.19-1.2-4.51-.78-1.32-1.85-2.35-3.2-3.1-1.35-.75-2.9-1.12-4.66-1.12s-3.37.39-4.77,1.18c-1.41.79-2.52,1.86-3.34,3.21-.82,1.35-1.26,2.88-1.3,4.59v9.38c0,2.03.4,3.81,1.2,5.34.8,1.53,1.94,2.71,3.41,3.55,1.47.84,3.22,1.27,5.26,1.27,1.41,0,2.68-.19,3.83-.58,1.15-.39,2.13-.96,2.95-1.72.82-.76,1.44-1.69,1.85-2.79l14.57.42c-.61,3.27-1.93,6.11-3.98,8.52-2.04,2.41-4.72,4.28-8.03,5.62-3.31,1.33-7.14,2-11.49,2"/>
      <g class="cls-2">
        <path class="cls-3" d="m114.72,28.3h-21.78v-11.68h21.78v11.68h0Zm-24.86-23.63h15.87v46.12c0,.97.15,1.76.47,2.35.31.59.77,1.02,1.38,1.26.61.25,1.33.37,2.18.37.6,0,1.25-.06,1.93-.18.68-.12,1.2-.22,1.54-.31l2.4,11.46c-.76.22-1.82.49-3.2.81-1.37.32-3.01.53-4.92.62-3.72.17-6.91-.27-9.56-1.32-2.65-1.05-4.67-2.69-6.07-4.92-1.4-2.23-2.07-5.03-2.03-8.41V4.67h0Z"/>
        <path class="cls-3" d="m131.47,101.46h-21.78v-11.68h21.78v11.68h0Zm-24.86-23.63h15.87v46.12c0,.97.15,1.76.47,2.35.31.59.77,1.02,1.38,1.26.61.25,1.33.37,2.18.37.6,0,1.25-.06,1.93-.18.68-.12,1.2-.22,1.54-.31l2.4,11.46c-.76.22-1.82.49-3.2.81-1.37.32-3.01.53-4.92.62-3.72.17-6.91-.27-9.56-1.32-2.65-1.05-4.67-2.69-6.07-4.92-1.4-2.23-2.07-5.03-2.03-8.41v-47.88h0Z"/>
      </g>
      <path class="cls-3" d="m133.78,67.32c-3.18,0-6-.54-8.46-1.6-2.46-1.07-4.39-2.69-5.81-4.87-1.42-2.18-2.13-4.91-2.13-8.2,0-2.77.49-5.11,1.46-7.01.97-1.9,2.32-3.45,4.03-4.64,1.71-1.19,3.68-2.09,5.91-2.71,2.23-.62,4.61-1.03,7.14-1.25,2.83-.26,5.12-.54,6.85-.83,1.73-.29,2.99-.71,3.78-1.27.79-.55,1.19-1.33,1.19-2.35v-.16c0-1.67-.57-2.95-1.72-3.86-1.15-.91-2.69-1.36-4.64-1.36-2.1,0-3.79.46-5.06,1.36-1.28.91-2.09,2.16-2.44,3.76l-14.64-.52c.43-3.03,1.55-5.74,3.36-8.13,1.81-2.39,4.3-4.27,7.47-5.65,3.17-1.37,6.98-2.06,11.44-2.06,3.18,0,6.11.37,8.8,1.12,2.68.75,5.02,1.83,7.01,3.25,1.99,1.42,3.53,3.15,4.62,5.21,1.09,2.06,1.64,4.4,1.64,7.04v33.89h-14.93v-6.95h-.39c-.89,1.69-2.02,3.12-3.39,4.28-1.37,1.17-2.99,2.05-4.84,2.63-1.85.58-3.93.88-6.25.88m4.9-10.39c1.71,0,3.25-.35,4.63-1.04,1.37-.69,2.47-1.65,3.29-2.87.82-1.22,1.23-2.65,1.23-4.27v-4.74c-.45.24-1,.45-1.64.65-.64.2-1.34.38-2.09.55-.76.17-1.54.32-2.34.46-.8.13-1.57.25-2.3.36-1.49.24-2.76.61-3.81,1.1-1.05.5-1.85,1.14-2.4,1.93-.55.79-.83,1.73-.83,2.81,0,1.65.59,2.9,1.77,3.76,1.18.87,2.68,1.3,4.5,1.3"/>
      <g class="cls-4">
        <polygon class="cls-3" points="171.89 16.62 187.76 16.62 187.76 66.47 171.89 66.47 171.89 16.62 171.89 16.62"/>
        <polygon class="cls-3" points="171.89 12.17 187.76 12.17 187.76 0 171.89 0 171.89 12.17 171.89 12.17"/>
        <polygon class="cls-3" points="197 66.47 212.87 66.47 212.87 0 197 0 197 66.47 197 66.47"/>
      </g>
      <path class="cls-3" d="m25.15,140.49c-5.2,0-9.68-1.03-13.45-3.09-3.77-2.06-6.66-5.01-8.68-8.84C1.01,124.74,0,120.18,0,114.89s1.01-9.63,3.04-13.48c2.03-3.85,4.89-6.85,8.58-9,3.69-2.15,8.04-3.22,13.04-3.22,3.54,0,6.78.55,9.71,1.65,2.93,1.1,5.47,2.73,7.61,4.89,2.14,2.16,3.8,4.82,4.99,7.98,1.19,3.16,1.78,6.78,1.78,10.86v3.95H5.53v-9.19h28.49c-.02-1.68-.42-3.18-1.2-4.5-.78-1.32-1.84-2.35-3.19-3.09-1.35-.74-2.9-1.12-4.65-1.12s-3.35.39-4.76,1.18c-1.4.79-2.51,1.86-3.33,3.2-.82,1.35-1.25,2.88-1.29,4.58v9.35c0,2.03.4,3.8,1.2,5.32.8,1.52,1.93,2.7,3.4,3.54,1.47.84,3.22,1.26,5.24,1.26,1.4,0,2.68-.19,3.82-.58,1.14-.39,2.12-.96,2.95-1.72.82-.76,1.43-1.68,1.85-2.78l14.53.42c-.61,3.26-1.93,6.09-3.97,8.5-2.04,2.41-4.71,4.27-8.01,5.6-3.3,1.33-7.12,1.99-11.46,1.99"/>
      <path class="cls-3" d="m68.49,111.2v28.36h-15.83v-49.72h15.05v9.13h.55c1.1-3.04,2.98-5.43,5.63-7.17,2.65-1.74,5.82-2.61,9.48-2.61s6.53.78,9.11,2.35c2.58,1.56,4.58,3.74,6.02,6.54,1.43,2.79,2.14,6.06,2.12,9.79v31.69h-15.83v-28.58c.02-2.76-.67-4.92-2.09-6.47-1.41-1.55-3.37-2.33-5.88-2.33-1.66,0-3.13.36-4.39,1.08-1.26.72-2.23,1.75-2.92,3.09-.68,1.34-1.03,2.96-1.05,4.85"/>
      <path class="cls-3" d="m150.96,131.68c0,4.35-3.52,7.87-7.87,7.87s-7.87-3.52-7.87-7.87,3.52-7.87,7.87-7.87,7.87,3.52,7.87,7.87"/>
    </g>
  </g>
</svg>